<svg width="97" height="55" viewBox="0 0 97 55" fill="none" xmlns="http://www.w3.org/2000/svg">
<path d="M19.64 15.84C23.192 15.84 26.408 16.656 29.288 18.288C32.168 19.872 34.424 22.128 36.056 25.056C37.688 27.984 38.504 31.32 38.504 35.064C38.504 38.808 37.688 42.144 36.056 45.072C34.424 48 32.168 50.28 29.288 51.912C26.408 53.544 23.192 54.36 19.64 54.36C16.472 54.36 13.616 53.688 11.072 52.344C8.576 51 6.56 49.056 5.024 46.512V54H0.128V0.575997H5.24V23.328C6.824 20.88 8.84 19.032 11.288 17.784C13.784 16.488 16.568 15.84 19.64 15.84ZM19.28 49.824C21.92 49.824 24.32 49.224 26.48 48.024C28.64 46.776 30.32 45.024 31.52 42.768C32.768 40.512 33.392 37.944 33.392 35.064C33.392 32.184 32.768 29.616 31.52 27.36C30.32 25.104 28.64 23.376 26.48 22.176C24.32 20.928 21.92 20.304 19.28 20.304C16.592 20.304 14.168 20.928 12.008 22.176C9.896 23.376 8.216 25.104 6.968 27.36C5.768 29.616 5.168 32.184 5.168 35.064C5.168 37.944 5.768 40.512 6.968 42.768C8.216 45.024 9.896 46.776 12.008 48.024C14.168 49.224 16.592 49.824 19.28 49.824ZM48.9249 16.128H54.0369V54H48.9249V16.128ZM51.5169 7.848C50.4609 7.848 49.5729 7.488 48.8529 6.768C48.1329 6.048 47.7729 5.184 47.7729 4.176C47.7729 3.216 48.1329 2.376 48.8529 1.656C49.5729 0.935997 50.4609 0.575997 51.5169 0.575997C52.5729 0.575997 53.4609 0.935997 54.1809 1.656C54.9009 2.328 55.2609 3.144 55.2609 4.104C55.2609 5.16 54.9009 6.048 54.1809 6.768C53.4609 7.488 52.5729 7.848 51.5169 7.848ZM81.5088 15.84C86.4528 15.84 90.2448 17.088 92.8848 19.584C95.5248 22.032 96.8448 25.68 96.8448 30.528V54H91.9488V48.096C90.7968 50.064 89.0928 51.6 86.8368 52.704C84.6288 53.808 81.9888 54.36 78.9168 54.36C74.6928 54.36 71.3328 53.352 68.8368 51.336C66.3408 49.32 65.0928 46.656 65.0928 43.344C65.0928 40.128 66.2448 37.536 68.5488 35.568C70.9008 33.6 74.6208 32.616 79.7088 32.616H91.7328V30.312C91.7328 27.048 90.8208 24.576 88.9968 22.896C87.1728 21.168 84.5088 20.304 81.0048 20.304C78.6048 20.304 76.3008 20.712 74.0928 21.528C71.8848 22.296 69.9888 23.376 68.4048 24.768L66.1008 20.952C68.0208 19.32 70.3248 18.072 73.0128 17.208C75.7008 16.296 78.5328 15.84 81.5088 15.84ZM79.7088 50.328C82.5888 50.328 85.0608 49.68 87.1248 48.384C89.1888 47.04 90.7248 45.12 91.7328 42.624V36.432H79.8528C73.3728 36.432 70.1328 38.688 70.1328 43.2C70.1328 45.408 70.9728 47.16 72.6528 48.456C74.3328 49.704 76.6848 50.328 79.7088 50.328Z" fill="#FFA1A1"/>
</svg>
